<svg xmlns="http://www.w3.org/2000/svg" viewBox="0 0 493.76 65.48"><path d="M11.61 30.78c-.65.59-1.62.89-2.96.89H4.82v-6.99h3.83c2.62 0 3.93 1.17 3.93 3.51 0 1.11-.31 1.97-.96 2.59m4.91-6.41c-.65-1.13-1.62-2.03-2.93-2.65-1.31-.65-2.89-.96-4.76-.96H0v24.05h4.82v-9.24h4.03c1.96 0 3.62-.35 4.89-1.03 1.31-.69 2.28-1.62 2.86-2.72.62-1.13.93-2.34.93-3.62 0-1.45-.35-2.72-1-3.83m11.65 1.93c-.96.55-1.79 1.35-2.41 2.38v-2.96h-4.83v19.09h4.83V35.3c0-1.79.38-3.03 1.14-3.72.79-.72 1.93-1.07 3.44-1.07h1.28v-5.06c-1.28 0-2.42.28-3.45.86m19.5 12.05c-.48.82-1.1 1.48-1.86 1.93-.76.42-1.59.62-2.45.62-1.38 0-2.55-.48-3.45-1.45-.89-1-1.35-2.41-1.35-4.2s.45-3.2 1.38-4.17c.93-.99 2.1-1.48 3.48-1.48s2.52.48 3.48 1.48c.96.97 1.45 2.35 1.45 4.17 0 1.21-.24 2.24-.69 3.1m4.36-8.27c-.86-1.52-2.04-2.66-3.52-3.45-1.52-.83-3.17-1.24-5-1.24s-3.52.41-5 1.24c-1.52.79-2.69 1.93-3.55 3.45-.86 1.48-1.28 3.2-1.28 5.17s.42 3.65 1.24 5.17c.83 1.48 2 2.65 3.49 3.47 1.45.79 3.1 1.21 4.96 1.21s3.51-.42 5.03-1.21c1.51-.82 2.69-1.99 3.58-3.47.89-1.52 1.35-3.25 1.35-5.17s-.45-3.69-1.31-5.17m19.02 8.13c-.45.82-1.06 1.48-1.86 1.96-.76.45-1.59.69-2.49.69s-1.69-.24-2.48-.65a5.563 5.563 0 0 1-1.86-1.96c-.45-.86-.69-1.86-.69-2.99s.24-2.17.69-2.99c.48-.86 1.11-1.52 1.86-1.93a4.68 4.68 0 0 1 2.48-.69c.9 0 1.72.2 2.49.65.79.42 1.41 1.07 1.86 1.93.48.83.72 1.79.72 2.96s-.24 2.17-.72 3.03m4.48-8.17c-.76-1.52-1.79-2.66-3.13-3.45-1.31-.82-2.76-1.2-4.41-1.2-1.38 0-2.66.27-3.76.89-1.07.55-1.93 1.28-2.55 2.17v-2.76h-4.83v28.18h4.83V42.07a8.74 8.74 0 0 0 2.59 2.17c1.09.55 2.34.86 3.72.86 1.65 0 3.1-.42 4.41-1.24 1.34-.82 2.37-1.99 3.13-3.48.79-1.52 1.17-3.27 1.17-5.2s-.38-3.69-1.17-5.13m17.85-4.33v10.51c0 1.52-.38 2.69-1.14 3.52-.76.79-1.79 1.21-3.13 1.21s-2.35-.42-3.1-1.21c-.76-.83-1.14-2-1.14-3.52V25.72h-4.83v11.2c0 1.69.31 3.16.97 4.41.65 1.21 1.59 2.13 2.72 2.79 1.14.62 2.49.92 3.96.92 1.17 0 2.24-.24 3.24-.69 1-.48 1.82-1.14 2.45-1.96v2.41h4.86V25.71h-4.86Zm9.61 19.08h4.83V19.31h-4.83V44.8Zm23.4-8.47c-.65-.79-1.42-1.38-2.31-1.72-.89-.38-2.03-.72-3.41-1.07-1.38-.35-2.38-.69-3-1-.65-.34-.96-.86-.96-1.48s.21-1.03.69-1.35c.48-.34 1.14-.48 2.04-.48s1.69.21 2.24.69c.55.42.89 1.04.96 1.79h4.62c-.14-1.93-.9-3.48-2.24-4.59-1.38-1.17-3.17-1.72-5.44-1.72-1.55 0-2.89.24-4.03.76-1.14.48-2 1.17-2.62 2.06-.62.86-.9 1.82-.9 2.89 0 1.28.31 2.31.97 3.06.65.76 1.45 1.31 2.34 1.69.89.35 2.06.72 3.51 1.07 1.38.35 2.38.69 3 1.03.62.28.96.76.96 1.38 0 .55-.28 1.03-.79 1.41-.52.35-1.24.55-2.13.55-.96 0-1.76-.24-2.38-.72s-1-1.1-1.07-1.83h-4.86c.07 1.18.45 2.24 1.17 3.21.72.96 1.72 1.72 2.96 2.31 1.25.55 2.62.82 4.2.82s2.83-.24 3.96-.72c1.14-.52 2-1.2 2.62-2.07.62-.89.93-1.86.93-2.96-.04-1.28-.38-2.28-1.03-3.03m8.64-2.84c.21-1.31.69-2.31 1.48-2.99.82-.76 1.86-1.1 3.03-1.1 1.28 0 2.34.38 3.2 1.13.89.72 1.35 1.72 1.35 2.96h-9.07Zm14.06 1.37c0-1.86-.38-3.51-1.2-4.93a7.774 7.774 0 0 0-3.35-3.34c-1.41-.79-3.03-1.17-4.85-1.17s-3.55.38-5 1.2c-1.45.79-2.54 1.93-3.37 3.45-.79 1.48-1.21 3.2-1.21 5.2s.42 3.65 1.21 5.17c.83 1.48 1.96 2.65 3.41 3.47 1.48.79 3.13 1.21 4.96 1.21 2.27 0 4.2-.59 5.75-1.76 1.59-1.21 2.62-2.72 3.17-4.55h-5.2c-.76 1.52-2.03 2.31-3.83 2.31-1.24 0-2.27-.41-3.13-1.17-.83-.79-1.31-1.86-1.45-3.24h13.96c.1-.55.13-1.17.13-1.86m-13.64-13.97v3.45l7.92-3.62v-3.93l-7.92 4.1Zm39.58 17.36c-.45.82-1.07 1.48-1.86 1.96-.76.45-1.59.69-2.48.69s-1.69-.24-2.48-.65a5.563 5.563 0 0 1-1.86-1.96c-.45-.86-.69-1.86-.69-2.99s.24-2.17.69-2.99c.48-.86 1.1-1.52 1.86-1.93.79-.48 1.62-.69 2.48-.69s1.72.2 2.48.65c.79.42 1.42 1.07 1.86 1.93.48.83.72 1.79.72 2.96s-.24 2.17-.72 3.03m4.48-8.17c-.76-1.52-1.79-2.66-3.14-3.45-1.31-.82-2.79-1.2-4.4-1.2-1.42 0-2.66.27-3.76.89-1.07.55-1.93 1.28-2.55 2.17v-2.76h-4.83v28.18h4.83V42.07c.65.86 1.52 1.59 2.58 2.17 1.07.55 2.31.86 3.72.86 1.62 0 3.1-.42 4.4-1.24 1.35-.82 2.38-1.99 3.14-3.48.79-1.52 1.17-3.27 1.17-5.2s-.38-3.69-1.17-5.13m17.79 8.24c-.48.83-1.11 1.45-1.86 1.93-.79.42-1.62.65-2.52.65s-1.72-.24-2.48-.69c-.76-.48-1.38-1.14-1.86-1.96-.48-.9-.69-1.89-.69-3.03s.2-2.13.69-2.96c.48-.86 1.1-1.52 1.86-1.93.76-.45 1.59-.65 2.48-.65s1.72.2 2.52.69c.76.42 1.38 1.07 1.86 1.93.45.82.69 1.82.69 2.99s-.24 2.17-.69 3.03m.69-12.57v2.72c-.65-.9-1.52-1.62-2.59-2.17-1.07-.59-2.3-.86-3.72-.86-1.65 0-3.13.38-4.44 1.2-1.31.79-2.38 1.93-3.14 3.45-.76 1.48-1.13 3.2-1.13 5.13s.38 3.69 1.13 5.2c.76 1.48 1.83 2.66 3.14 3.48s2.79 1.24 4.41 1.24c1.41 0 2.65-.31 3.75-.86 1.11-.62 1.96-1.34 2.59-2.23v2.79h4.86V25.72h-4.86Zm16.78.58c-.96.55-1.79 1.35-2.41 2.38v-2.96h-4.83v19.09h4.83V35.3c0-1.79.38-3.03 1.13-3.72.79-.72 1.93-1.07 3.45-1.07h1.27v-5.06c-1.27 0-2.41.28-3.44.86M250.41.43c-5.06 2.3-3.31 7.58 4.93 13.57 4.23-8.47.14-15.89-4.93-13.57M233.94 6.9c-5.41 5.69.13 12.89 14.78 18.33.58-14.62-9.37-23.98-14.78-18.33m35.04 23.3c-.62-3.34 1.17-6.48 3.93-6.96 2.76-.48 5.47 1.82 6.06 5.2.59 3.34-1.17 6.47-3.93 6.96-2.79.48-5.47-1.82-6.07-5.2m30.5 9.23c-.11-.69-.25-1.51-.35-2.37l-.03-.04c-1.28-8.99-3.86-26.97-25.36-23.32l-20.81 3.69 7.99 45.62 15.43-2.76-2.65-15.33s12.75-3.16 25.77-5.48m151.64-5.25c.76-1.07 1.79-1.65 3.06-1.76 1.35-.14 2.52.24 3.55 1.14 1 .89 1.69 2.2 2 3.96l-9.88.86c.1-1.72.52-3.13 1.27-4.2m10.62 13.99c-1.14.76-2.38 1.17-3.79 1.31-1.62.14-3.1-.14-4.37-.9-1.28-.72-2.24-1.86-2.93-3.44l23.46-2.07c0-.41 0-.82-.03-1.31l-.1-1.28c-.28-2.79-.86-5.41-1.83-7.82-1-2.41-2.34-4.48-4.06-6.17-1.72-1.72-3.79-2.99-6.27-3.86-2.48-.86-5.34-1.14-8.61-.86-2.76.24-5.23.97-7.44 2.17s-4.06 2.72-5.55 4.61c-1.52 1.9-2.62 4.07-3.34 6.51-.76 2.45-1 5.03-.76 7.79l.07.72c.31 2.66 1 5.03 2.07 7.13 1.17 2.27 2.69 4.17 4.62 5.68 1.89 1.52 4.13 2.62 6.68 3.34 2.55.69 5.3.9 8.31.65 3.96-.34 7.2-1.37 9.71-3.1 2.52-1.72 4.58-3.86 6.2-6.44l-8.72-5.83c-1.07 1.38-2.2 2.42-3.3 3.14m-158.2-34.49-1.52 44.23 15.23.55 1.51-44.24-15.23-.55Zm59.22 6.41-15.23.83 1.03 19.46c.07 1.59-.31 2.83-1.13 3.76-.83.92-1.83 1.41-2.97 1.48-1.17.07-2.16-.31-3.03-1.18-.82-.82-1.31-2.03-1.38-3.61l-1.03-19.47-15.19.79 1.28 24.43c.21 4.2 1.48 7.44 3.86 9.71 2.35 2.31 5.48 3.34 9.37 3.14 2.58-.14 4.76-.86 6.54-2.14 1.79-1.27 3.24-2.69 4.34-4.3l.25 4.96 15.19-.82-1.89-37.04Zm67.46 5.23c-2.13-2.51-5.17-3.89-9.09-4.1-2.79-.14-5.2.31-7.2 1.34a22.086 22.086 0 0 0-5.51 4.1c-.93-2.03-2.27-3.62-4.03-4.79-1.79-1.14-3.93-1.76-6.44-1.89-2.51-.14-4.75.34-6.65 1.41-1.89 1.11-3.44 2.38-4.68 3.86l.24-4.96-15.19-.83-1.93 37.08 15.23.79 1-19.61c.07-1.59.59-2.79 1.45-3.59.89-.79 1.93-1.14 3.03-1.06 1.1.03 2.03.52 2.79 1.37.72.9 1.07 2.14.96 3.72l-.99 19.61 15.19.79 1.03-19.61c.07-1.59.55-2.76 1.45-3.55.89-.79 1.89-1.17 2.99-1.11 1.14.04 2.07.52 2.79 1.42.75.86 1.07 2.1 1 3.69l-1.04 19.61 15.23.79 1.24-24.43c.24-4.2-.72-7.54-2.86-10.06m60.63 21.72c-6.68-4.2-12.19 2.62-12.23 18.47 13.72-4.45 18.91-14.27 12.23-18.47" data-name="Calque_1" style="fill:#fff"/></svg>