<svg xmlns="http://www.w3.org/2000/svg" id="Calque_2" data-name="Calque 2" viewBox="0 0 327.74 306.54"><defs><style>.cls-3{fill:#00ba76}.cls-5{opacity:.7}.cls-6{opacity:.4}.cls-7{fill:#ffb500}</style></defs><g id="Calque_1-2" data-name="Calque 1"><g class="cls-5"><circle cx="163.89" cy="163.02" r="115.92" style="fill:none"/><path d="M254.27 158.36h-1.05c-4.18-.06-8.79.04-10.55 2.01-.58.65-.83 1.45-.73 2.31.08.63.36 1.21.84 1.71.48.51 1.17.94 2.05 1.31 2.09.87 4.93 1.22 6.29 1.39l.25.03c13.59 1.72 28.25 2.02 42.41.84 1.15-.09 2.35-.25 3.38-1.04.59-.45.99-1.02 1.18-1.65.17-.56.18-1.16.03-1.79-.42-1.68-2.08-3.23-3.77-3.52-9.78-1.67-19.61-1.86-27.07-1.83-4.54.01-9.17.13-13.26.23Zm4.75-36.33c-.28.07-.71.16-1.23.28-4.92 1.07-10.3 2.45-11.82 5.24-.51.92-.58 1.93-.22 2.91.27.72.75 1.32 1.45 1.77.71.46 1.62.79 2.76.98 2.69.45 6.11.09 7.75-.09l.3-.04c16.4-1.69 33.67-5.35 49.96-10.6 1.32-.42 2.69-.94 3.67-2.14.57-.69.88-1.46.93-2.26.05-.7-.11-1.41-.45-2.1-.95-1.86-3.32-3.22-5.38-3.09-11.93.71-23.49 3.18-32.23 5.25-5.32 1.26-10.72 2.66-15.49 3.9Z" class="cls-7"/><g class="cls-6"><path d="M248.27 94.37c-.19.15-.48.37-.83.64-3.33 2.53-6.91 5.44-7.09 8.08-.06.87.23 1.66.85 2.27.45.45 1.03.73 1.71.83.69.1 1.5.03 2.42-.23 2.18-.6 4.64-2.06 5.82-2.77l.21-.13c11.78-7 23.52-15.78 33.97-25.41.85-.78 1.7-1.65 2.02-2.9.19-.72.15-1.41-.08-2.03-.21-.54-.57-1.03-1.07-1.43-1.37-1.07-3.63-1.27-5.13-.46-8.74 4.7-16.61 10.59-22.47 15.2-3.57 2.8-7.15 5.74-10.32 8.34Z" class="cls-7"/></g><path d="M183.93 65.02c-.05.23-.15.58-.26 1.01-1.08 4.04-2.11 8.54-.63 10.72.49.72 1.2 1.16 2.06 1.27.63.08 1.26-.05 1.86-.4.61-.34 1.2-.9 1.77-1.66 1.36-1.81 2.39-4.48 2.89-5.76l.09-.23c5-12.75 8.88-26.9 11.21-40.92.19-1.14.33-2.34-.18-3.53-.29-.68-.75-1.21-1.31-1.55-.5-.3-1.08-.46-1.73-.47-1.73 0-3.64 1.22-4.33 2.79-4.02 9.08-6.6 18.55-8.4 25.79-1.1 4.41-2.12 8.92-3.02 12.92Zm38.75 6.71c-.18.27-.47.67-.82 1.16-3.32 4.6-6.8 9.78-6.1 12.98.23 1.06.87 1.84 1.86 2.27.73.31 1.55.37 2.44.15.91-.21 1.9-.7 2.97-1.44 2.54-1.76 5.12-4.69 6.35-6.09l.22-.26c12.39-13.97 24.11-30.04 33.9-46.49.8-1.33 1.57-2.77 1.54-4.4-.02-.94-.3-1.74-.81-2.36-.45-.54-1.08-.94-1.85-1.17-2.09-.6-5 .26-6.62 1.95-9.37 9.79-17.21 20.56-22.99 28.85-3.52 5.04-7 10.25-10.08 14.85Zm-71.14-11.64c.03.32.06.8.1 1.39.34 5.58.9 11.68 3.26 13.62.78.64 1.69.81 2.64.49.7-.24 1.31-.73 1.82-1.47.52-.75.93-1.75 1.26-2.99.77-2.96.88-6.81.94-8.65v-.33c.6-18.43-.5-37.99-3.18-56.58-.21-1.51-.51-3.08-1.49-4.27-.56-.69-1.23-1.1-1.95-1.23-.64-.11-1.31 0-1.99.33-1.83.91-3.39 3.44-3.54 5.74-.91 13.36-.16 26.46.59 36.38.46 6.04 1.03 12.17 1.55 17.59Z" class="cls-7"/><g class="cls-5"><path d="M119.48 73.39c.1.22.24.55.42.96 1.63 3.85 3.58 8.03 6.09 8.85.83.27 1.66.18 2.41-.26.55-.33.96-.82 1.22-1.46.27-.65.39-1.45.38-2.4-.04-2.26-.86-5-1.26-6.32l-.07-.24c-3.89-13.14-9.52-26.68-16.29-39.17-.55-1.01-1.18-2.05-2.31-2.67-.65-.36-1.33-.49-1.99-.42-.58.07-1.14.3-1.65.69-1.37 1.06-2.12 3.2-1.7 4.86 2.41 9.63 6.19 18.7 9.21 25.52 1.84 4.15 3.81 8.34 5.55 12.05Z" class="cls-7"/></g><path d="M81.97 84.43c.2.24.49.62.85 1.07 3.37 4.33 7.24 8.97 10.53 9.18 1.09.07 2.04-.32 2.76-1.13.53-.6.84-1.35.91-2.24.08-.91-.07-1.96-.45-3.16-.89-2.85-2.89-6.04-3.84-7.57l-.18-.28c-9.51-15.32-21.24-30.58-33.93-44.14-1.03-1.1-2.16-2.21-3.74-2.61-.91-.24-1.76-.19-2.52.13-.66.28-1.24.76-1.7 1.42-1.23 1.8-1.33 4.75-.22 6.71 6.44 11.38 14.31 21.59 20.44 29.21 3.73 4.64 7.63 9.29 11.08 13.4Z" class="cls-7"/><g class="cls-5"><path d="M78.85 124.62c.21.11.53.29.92.5 3.65 2.05 7.75 4.15 10.24 3.26.82-.29 1.42-.88 1.74-1.68.23-.59.26-1.23.07-1.9-.18-.68-.58-1.38-1.17-2.13-1.42-1.76-3.75-3.43-4.86-4.22l-.2-.14c-11.12-8-23.87-15.25-36.88-20.97-1.05-.47-2.19-.9-3.46-.69-.73.12-1.35.42-1.83.89-.42.41-.71.94-.88 1.56-.43 1.68.29 3.83 1.63 4.89 7.8 6.13 16.35 10.98 22.92 14.52 4 2.15 8.12 4.26 11.77 6.12Z" class="cls-7"/></g><g class="cls-6"><path d="M64.58 151.14c.24.03.59.1 1.03.17 4.12.74 8.68 1.39 10.74-.26.68-.55 1.06-1.29 1.09-2.16.02-.64-.16-1.25-.55-1.82-.39-.58-1-1.12-1.8-1.63-1.92-1.2-4.66-2.01-5.98-2.4l-.24-.07c-13.13-3.92-27.54-6.61-41.71-7.77-1.15-.1-2.36-.14-3.5.48-.66.35-1.14.84-1.44 1.44-.26.52-.37 1.12-.32 1.76.14 1.73 1.52 3.53 3.14 4.09 9.38 3.25 19.04 5.04 26.4 6.23 4.48.73 9.07 1.37 13.12 1.94Z" class="cls-7"/></g><path d="M62.41 184.14c.31-.06.78-.14 1.36-.24 5.46-.9 11.43-2.09 13.15-4.77.57-.88.66-1.86.27-2.83-.29-.71-.82-1.31-1.59-1.77-.78-.47-1.79-.81-3.05-1.03-2.97-.52-6.77-.27-8.59-.14l-.33.03c-18.19 1.17-37.36 4.23-55.46 8.87-1.47.37-2.99.84-4.09 1.98-.63.66-.99 1.4-1.06 2.18-.06.68.11 1.38.48 2.07 1.04 1.84 3.65 3.24 5.93 3.18 13.22-.34 26.07-2.41 35.77-4.17 5.91-1.07 11.9-2.28 17.2-3.34Zm9.52 34.45c.21-.12.53-.29.92-.5 3.7-1.94 7.71-4.23 8.32-6.8.2-.85.04-1.67-.46-2.38-.37-.52-.89-.89-1.55-1.1-.67-.22-1.47-.27-2.42-.18-2.25.23-4.92 1.27-6.19 1.78l-.23.09c-12.77 4.96-25.8 11.7-37.68 19.48-.97.63-1.95 1.34-2.47 2.52-.3.68-.38 1.37-.25 2.02.12.57.4 1.11.83 1.59 1.17 1.28 3.37 1.85 4.99 1.29 9.4-3.2 18.12-7.72 24.66-11.3 3.98-2.18 8-4.49 11.55-6.53Z" class="cls-7"/><g class="cls-6"><path d="M99.66 239.67c.16-.18.41-.44.71-.77 2.88-3.04 5.92-6.5 5.67-9.13-.08-.87-.5-1.6-1.21-2.1-.52-.37-1.13-.55-1.82-.54-.7.01-1.48.22-2.35.62-2.06.95-4.24 2.79-5.28 3.68l-.19.16c-10.48 8.83-20.62 19.41-29.35 30.63-.71.91-1.41 1.9-1.52 3.19-.07.74.08 1.42.41 1.99.29.5.73.92 1.29 1.23 1.52.83 3.78.66 5.14-.39 7.86-6.06 14.65-13.16 19.68-18.67 3.07-3.35 6.12-6.83 8.82-9.91Z" class="cls-7"/></g><path d="M127.52 260.17c.15-.27.38-.67.67-1.17 2.72-4.65 5.53-9.88 4.44-13.1a3.701 3.701 0 0 0-2.13-2.28c-.76-.31-1.58-.36-2.45-.14-.88.22-1.8.71-2.77 1.46-2.3 1.79-4.5 4.75-5.55 6.17l-.19.26c-10.55 14.14-20.18 30.38-27.85 47-.63 1.35-1.21 2.8-.97 4.44.13.95.51 1.75 1.1 2.37.52.54 1.19.94 1.98 1.17 2.15.59 4.94-.28 6.33-1.99 8.08-9.9 14.52-20.8 19.22-29.17 2.86-5.1 5.67-10.36 8.15-15.01Z" class="cls-7"/><g class="cls-5"><path d="M160.26 262.95c.01-.24.05-.6.09-1.04.4-4.16.67-8.77-1.15-10.68-.6-.63-1.38-.95-2.24-.91-.64.03-1.23.26-1.77.7-.55.44-1.03 1.09-1.47 1.93-1.04 2.01-1.62 4.81-1.9 6.15l-.05.24c-2.83 13.4-4.31 27.99-4.3 42.2 0 1.15.06 2.37.76 3.45.4.62.93 1.07 1.55 1.31.54.22 1.14.27 1.78.18 1.71-.28 3.39-1.81 3.81-3.47 2.46-9.61 3.45-19.39 4.03-26.83.36-4.53.62-9.15.85-13.24Z" class="cls-7"/></g><path d="M192.96 258.73c-.06-.23-.15-.58-.25-1.02-.97-4.07-2.2-8.51-4.54-9.74-.77-.41-1.61-.45-2.42-.14-.59.23-1.08.65-1.45 1.23-.37.59-.63 1.36-.77 2.3-.33 2.24.02 5.08.19 6.44l.03.25c1.66 13.6 4.96 27.89 9.57 41.33.37 1.09.82 2.22 1.84 3.02.58.46 1.23.71 1.89.74.58.03 1.17-.11 1.74-.41 1.53-.82 2.62-2.81 2.49-4.51-.78-9.89-3-19.46-4.85-26.69-1.13-4.4-2.37-8.86-3.47-12.8Zm33.9-6.54c-.17-.24-.4-.62-.7-1.08-2.77-4.36-5.99-9.04-9.21-9.53-1.06-.16-2.06.12-2.87.81-.6.51-1 1.19-1.19 2.02-.2.84-.18 1.84.03 3 .51 2.74 2.07 5.91 2.81 7.43l.14.27c7.4 15.19 17.01 30.52 27.79 44.34.87 1.12 1.85 2.26 3.36 2.78.87.3 1.72.33 2.5.1.69-.2 1.32-.6 1.86-1.18 1.45-1.57 1.93-4.33 1.08-6.26-4.88-11.22-11.33-21.49-16.4-29.17-3.08-4.68-6.33-9.38-9.2-13.53Z" class="cls-7"/><g class="cls-5"><path d="M245.59 220.7c-.19-.14-.47-.37-.82-.65-3.26-2.62-6.96-5.37-9.56-4.9-.86.15-1.55.63-1.99 1.38-.33.55-.46 1.17-.39 1.86.07.7.34 1.46.81 2.29 1.11 1.97 3.13 4 4.1 4.96l.18.17c9.66 9.72 21.04 18.96 32.93 26.74.96.63 2.01 1.25 3.3 1.25.74 0 1.41-.2 1.95-.58.48-.33.86-.81 1.12-1.39.7-1.59.35-3.83-.81-5.09-6.69-7.33-14.32-13.52-20.22-18.09-3.59-2.78-7.31-5.54-10.6-7.97Z" class="cls-7"/></g><path d="M268.06 195.68c-.23-.07-.57-.2-.99-.34-3.94-1.41-8.33-2.81-10.63-1.52-.76.43-1.26 1.1-1.44 1.95-.13.62-.05 1.26.24 1.89.29.64.8 1.27 1.51 1.9 1.69 1.5 4.26 2.76 5.5 3.36l.23.11c12.29 6.05 26.06 11.08 39.84 14.57 1.12.29 2.31.53 3.53.11.7-.24 1.27-.64 1.66-1.18.34-.47.55-1.04.61-1.68.15-1.73-.92-3.73-2.42-4.55-8.71-4.76-17.94-8.13-25-10.52-4.3-1.46-8.72-2.86-12.62-4.09Z" class="cls-7"/></g><path d="M310.01 59.01c-.37.16-1.09.3-1.86-.62-.02-.02-.03-.04-.05-.06-1.02-1.44-1.76-3.08-2.47-4.66-.22-.48-.44-.98-.67-1.46-.15-.33-.27-.58-.37-.63-.09-.05-.34 0-.67.04h-.02c-5.52 1.21-8.71.24-9.86-1.07-.53-.61-.68-1.35-.41-2.08.65-1.83 3.66-3.35 8.04-4.06.11-.02.17-.09.19-.14.04-.08.05-.17.01-.25-.26-.62-.56-1.24-.86-1.83-.81-1.64-1.65-3.34-1.61-5.3 0-.06 0-.11.02-.17.2-.97.74-1.28 1.16-1.37 1.71-.35 4.66 2.44 5.77 4.04.05.07.13.11.21.12.09 0 .17-.03.23-.1 2.81-3.33 6.65-5.19 8.22-3.97.71.55 1.43 2.14-1.75 6.61-.08.11-.05.22-.03.27.02.04.08.15.21.17 5.51.78 9.51 3.12 9.31 5.45-.19 2.11-3.81 3.24-9.69 3.04h-.02c-.89.03-1.15.07-1.71.35-.11.06-.17.18-.15.3.26 1.28.41 2.61.51 3.74.18 1.21-.58 3.17-1.68 3.66Z" style="fill:#ffb700"/><path d="M31.92 59.23c.16 5.51-1.48 11.47-4.5 16.35-1.48 2.4-3.88 4.08-6.67 4.33-3.58.33-7.29-.65-10.46-2.38-2.77-1.51-6.09-3.81-7.05-7.05-.5-1.7-.15-3.34 1.03-4.87 1.05-1.36 2.79-2.24 4.65-2.36 1.11-.07 2.27.12 3.42.56.17.06.84.34 1.46.67.21.11.4.22.57.33.91-4.05 3.24-10.33 9.17-13.16 1.23-.59 2.25-.83 3.21-.78 4.45.26 5.09 5.93 5.16 8.35Zm65.98 91c-1.57 2.48-5.2 2.34-6.12 2.22-2.25-.3-4.31-1.44-6.17-2.74-1.28-.89-2.54-1.92-3.14-3.35-.61-1.43-.31-3.35 1.02-4.14.22-.14.94-.63 3.9-.01 4.11.86 4.86 2.23 7.54 2.05 1.26-.08 1.63-.42 2.26-.08 1.48.8 2 4.01.71 6.05Z" class="cls-3"/><path d="M273.9 160.19c-.27-16.34-4.03-32.61-11.19-47.3-4.98-10.21-11.64-19.78-19.64-28.03-33.72-34.74-91.2-40.12-132.89-17.2a101.45 101.45 0 0 0-9.45 5.9c-4.92 3.45-9.54 7.33-13.79 11.58-33.98 33.98-41.11 90.61-17.82 132.42 22.91 41.11 73.71 61.09 119.1 52.48 51.12-9.7 86.52-58.86 85.68-109.85ZM68.78 201.36c-4.19-11.01-7.59-24.99-7.83-38.29-.12-7.21.68-14.22 2.8-20.46 1.26 3.49 1.86 7.28 3.4 10.71 2.98 6.68 7.7 12.04 7.82 19.64.12 6.83-2.86 15.47 2.31 21.19 2.56 2.83 6.56 3.95 9.26 6.63 3.95 3.9 4.27 10.03 5.08 15.52 1.64 11.22 6.34 21.98 13.46 30.82-16.9-10.59-29.27-27.24-36.3-45.76Zm168.6 34.22a98.131 98.131 0 0 1-10.5 9.13c-29.42 22.12-70.97 26.89-104.64 12.01-1.41-.62-2.91-1.37-3.63-2.74-.82-1.57-.38-3.47.13-5.16 3.65-12.05 10.31-23.17 19.21-32.06 3.97-3.96 8.75-9.59 5.81-14.36-1.8-2.91-5.61-3.64-8.89-4.61-7.48-2.22-14.13-7.15-18.43-13.68-3.22-4.89-5.1-10.55-8.08-15.59-2.99-5.04-7.58-9.68-13.39-10.41-4.56-.58-9.85 1.18-13.41-1.73-2.79-2.29-3.07-6.37-4.37-9.74-1.21-3.14-3.4-5.79-4.96-8.76-1.56-2.98-2.46-6.67-.91-9.65 1.54-2.99 6.33-4.16 8.3-1.44 1.09 1.51.99 3.6 1.89 5.24 1.64 2.99 6.14 3.28 8.98 1.39 2.83-1.89 4.32-5.22 5.38-8.46s1.89-6.66 3.94-9.38c3.3-4.41 9.01-6.09 14.29-7.67 5.27-1.57 10.96-3.65 13.75-8.39 2.8-4.74.12-12.59-5.38-12.42-5.25.15-9.61 7.08-14.37 4.87-12.22-5.7 17.81-17.7 21.19-18.41 2.49-.53 5.2-.85 7.49.27 4.06 1.99 4.97 7.47 8.37 10.46 3.67 3.24 9.9 2.57 13.25-1 3.35-3.58 3.81-9.33 1.63-13.72-2.17-4.39-6.63-7.41-11.4-8.5 11.85-1.93 24.02-1.94 35.88-.03 3.5.56 7.09 1.35 9.9 3.5 2.81 2.14 4.6 6.01 3.33 9.31-2.08-1.95-4.4-3.88-7.22-4.34-2.81-.46-6.15 1.16-6.56 3.98-.45 3.03 2.46 5.47 5.25 6.75 2.78 1.27 6.02 2.27 7.57 4.91 1.54 2.65-.84 7.16-3.64 5.91-1.31-.58-1.95-2.09-3.16-2.84-1.83-1.14-4.39-.09-5.62 1.69-1.23 1.78-1.48 4.04-1.69 6.19-1.47-1.05-3.04-2.14-4.84-2.28s-3.84 1.07-3.9 2.88c-.04 1.64 1.43 2.85 2.45 4.15 2.26 2.86 2.4 7.21.33 10.22-2.25 3.27-6.99 5.92-5.86 9.73.99 3.37 6.09 3.55 8.8 1.31 2.71-2.25 3.89-5.79 5.75-8.77 1.87-2.98 5.31-5.68 8.64-4.56 3.77 1.27 5.36 6.79 9.33 6.96.52-3.69-.25-7.54-2.14-10.75 5.3.87 6.89 10.54 12.12 9.31 2.18-.52 3.37-2.88 3.87-5.07.51-2.18.67-4.56 2.01-6.36 1.34-1.8 4.49-2.45 5.68-.55 1.62 2.58-2.04 5.29-2.75 8.25-.61 2.59 1.22 5.15 3.31 6.8 2.1 1.65 4.6 2.86 6.25 4.96.89 1.14 1.5 2.5 2.56 3.48 3.87 3.56 9.88-.12 15.12-.54 5.28-.43 10.33 2.88 13.28 7.28 2.94 4.4 4.11 9.74 4.82 14.99 4.31 31.87-7.45 65.34-30.12 88.04Z" class="cls-3"/><path d="M105.08 247.12c-16.9-10.59-29.27-27.24-36.3-45.76-4.19-11.01-7.59-24.99-7.83-38.29-.12-7.21.68-14.22 2.8-20.46 1.26 3.49 1.86 7.28 3.4 10.71 2.98 6.68 7.7 12.04 7.82 19.64.12 6.83-2.86 15.47 2.31 21.19 2.56 2.83 6.56 3.95 9.26 6.63 3.95 3.9 4.27 10.03 5.08 15.52 1.64 11.22 6.34 21.98 13.46 30.82Zm162.42-99.58c-.71-5.25-1.88-10.59-4.82-14.99-2.95-4.4-8-7.71-13.28-7.28-5.24.42-11.25 4.1-15.12.54-1.06-.98-1.67-2.34-2.56-3.48-1.65-2.1-4.15-3.31-6.25-4.96-2.09-1.65-3.92-4.21-3.31-6.8.71-2.96 4.37-5.67 2.75-8.25-1.19-1.9-4.34-1.25-5.68.55-1.34 1.8-1.5 4.18-2.01 6.36-.5 2.19-1.69 4.55-3.87 5.07-5.23 1.23-6.82-8.44-12.12-9.31 1.89 3.21 2.66 7.06 2.14 10.75-3.97-.17-5.56-5.69-9.33-6.96-3.33-1.12-6.77 1.58-8.64 4.56-1.86 2.98-3.04 6.52-5.75 8.77-2.71 2.24-7.81 2.06-8.8-1.31-1.13-3.81 3.61-6.46 5.86-9.73 2.07-3.01 1.93-7.36-.33-10.22-1.02-1.3-2.49-2.51-2.45-4.15.06-1.81 2.1-3.02 3.9-2.88s3.37 1.23 4.84 2.28c.21-2.15.46-4.41 1.69-6.19 1.23-1.78 3.79-2.83 5.62-1.69 1.21.75 1.85 2.26 3.16 2.84 2.8 1.25 5.18-3.26 3.64-5.91-1.55-2.64-4.79-3.64-7.57-4.91-2.79-1.28-5.7-3.72-5.25-6.75.41-2.82 3.75-4.44 6.56-3.98 2.82.46 5.14 2.39 7.22 4.34 1.27-3.3-.52-7.17-3.33-9.31-2.81-2.15-6.4-2.94-9.9-3.5-11.86-1.91-24.03-1.9-35.88.03 4.77 1.09 9.23 4.11 11.4 8.5 2.18 4.39 1.72 10.14-1.63 13.72-3.35 3.57-9.58 4.24-13.25 1-3.4-2.99-4.31-8.47-8.37-10.46-2.29-1.12-5-.8-7.49-.27-3.38.71-33.41 12.71-21.19 18.41 4.76 2.21 9.12-4.72 14.37-4.87 5.5-.17 8.18 7.68 5.38 12.42-2.79 4.74-8.48 6.82-13.75 8.39-5.28 1.58-10.99 3.26-14.29 7.67-2.05 2.72-2.88 6.14-3.94 9.38s-2.55 6.57-5.38 8.46c-2.84 1.89-7.34 1.6-8.98-1.39-.9-1.64-.8-3.73-1.89-5.24-1.97-2.72-6.76-1.55-8.3 1.44-1.55 2.98-.65 6.67.91 9.65 1.56 2.97 3.75 5.62 4.96 8.76 1.3 3.37 1.58 7.45 4.37 9.74 3.56 2.91 8.85 1.15 13.41 1.73 5.81.73 10.4 5.37 13.39 10.41 2.98 5.04 4.86 10.7 8.08 15.59 4.3 6.53 10.95 11.46 18.43 13.68 3.28.97 7.09 1.7 8.89 4.61 2.94 4.77-1.84 10.4-5.81 14.36-8.9 8.89-15.56 20.01-19.21 32.06-.51 1.69-.95 3.59-.13 5.16.72 1.37 2.22 2.12 3.63 2.74 33.67 14.88 75.22 10.11 104.64-12.01 3.72-2.79 7.22-5.85 10.5-9.13 22.67-22.7 34.43-56.17 30.12-88.04Zm-169.6 2.69c-1.57 2.48-5.2 2.34-6.12 2.22-2.25-.3-4.31-1.44-6.17-2.74-1.28-.89-2.54-1.92-3.14-3.35-.61-1.43-.31-3.35 1.02-4.14.22-.14.94-.63 3.9-.01 4.11.86 4.86 2.23 7.54 2.05 1.26-.08 1.63-.42 2.26-.08 1.48.8 2 4.01.71 6.05Zm66.78-63.19c1.01-3.4 5.64-5.64 7.63-4.34 1.02.67 1.13 2.13 1.16 2.6.25 3.39-3.47 5.6-4.09 5.97-1.09.64-2.31 1.37-3.37.91-1.47-.65-1.87-3.29-1.33-5.14Zm84.89 127.33c-.56.49-1.82 1.57-2.67 1.18-.74-.34-.82-1.64-.84-2.23-.21-4.23 2.47-17.53 8.53-17.72.36-.01 1.92-.02 2.93 1.07 3.41 3.66-4.33 14.52-7.95 17.7Zm8.04-46.88c-6.95 23.71-18.51 46.8-37.3 62.84-1.72 1.46-3.73 2.94-5.97 2.74-2.5-.22-4.33-2.44-5.5-4.65-6.21-11.74-2.05-26.07-3.34-39.29-.23-2.33-.72-4.82-2.41-6.44-2.85-2.75-7.45-1.75-11.34-1.04-8.13 1.48-16.88.8-24.05-3.3-7.17-4.11-12.42-11.98-12.08-20.24.28-6.64 3.95-12.67 8.2-17.78 2.21-2.66 7.88-9.67 18.1-13.78 18.11-7.27 34.67.76 38.07 2.52 1.75.9 2.96 1.67 4.16 2.44 11.42 7.32 19.06 16.55 24.17 24.55.6-2.58 3.97-3.81 6.4-2.75 2.43 1.05 3.84 3.74 4.09 6.37.25 2.64-.45 5.27-1.2 7.81Z" style="fill:#f5f5f1"/><path d="M257.61 167.49c-6.95 23.71-18.51 46.8-37.3 62.84-1.72 1.46-3.73 2.94-5.97 2.74-2.5-.22-4.33-2.44-5.5-4.65-6.21-11.74-2.05-26.07-3.34-39.29-.23-2.33-.72-4.82-2.41-6.44-2.85-2.75-7.45-1.75-11.34-1.04-8.13 1.48-16.88.8-24.05-3.3-7.17-4.11-12.42-11.98-12.08-20.24.28-6.64 3.95-12.67 8.2-17.78 2.21-2.66 7.88-9.67 18.1-13.78 18.11-7.27 34.67.76 38.07 2.52 1.75.9 2.96 1.67 4.16 2.44 11.42 7.32 19.06 16.55 24.17 24.55.6-2.58 3.97-3.81 6.4-2.75 2.43 1.05 3.84 3.74 4.09 6.37.25 2.64-.45 5.27-1.2 7.81Zm-8.04 46.88c-.56.49-1.82 1.57-2.67 1.18-.74-.34-.82-1.64-.84-2.23-.21-4.23 2.47-17.53 8.53-17.72.36-.01 1.92-.02 2.93 1.07 3.41 3.66-4.33 14.52-7.95 17.7Zm-80.19-123.1c-1.09.64-2.31 1.37-3.37.91-1.47-.65-1.87-3.29-1.33-5.14 1.01-3.4 5.64-5.64 7.63-4.34 1.02.67 1.13 2.13 1.16 2.6.25 3.39-3.47 5.6-4.09 5.97Zm144.03 153.59c-.07.06-.13.12-.2.18-.26.23-.51.47-.77.71-4.16 3.84-8.36 7.62-12.58 11.38-4.51 4.02-9.03 8.02-13.52 12.07-1.68 1.51-3.43 2.96-5.04 4.55-.67.66-1.43 1.22-2.05 1.95-1.15 1.35-1.9 3-2.74 4.55-.87 1.62-1.71 3.25-2.48 4.92 0 0 0 .01-.01.02-.4.86-.78 1.73-1.14 2.61-.37.91-1.02 2.09-.49 3.05.59 1.07 1.82.87 2.82.65 1.17-.25 2.34-.55 3.5-.88.12-.01.23-.04.34-.1.78-.23 1.55-.47 2.32-.73 1.82-.61 3.69-1.15 5.42-2.01 1.9-.94 3.23-2.36 4.73-3.8 3.74-3.61 7.51-7.18 11.31-10.73 4.84-4.51 9.73-8.96 14.66-13.36.91-.81 1.83-1.62 2.75-2.43.33-.18.63-.42.91-.67.5-.45 1-.91 1.49-1.36.15-.07.28-.17.39-.32a.21.21 0 0 1 .04-.06c.55-.51 1.1-1.01 1.65-1.52l1.2-1.05c.07-.07.13-.13.18-.2.58-.52 1.14-1.06 1.45-1.8.4-.99.28-2.18-.3-3.07-.19-.29-.41-.55-.63-.81-1.3-1.56-2.58-3.15-3.91-4.7-.63-.73-1.5-1.2-2.47-1.3-1.19-.13-2.15.39-3.05 1.1-1.26.99-2.49 2.02-3.69 3.08-.02.02-.04.03-.06.05Zm-19.92 20.51c4.54-4.05 9.09-8.07 13.6-12.14 1.27-1.15 2.53-2.29 3.79-3.45.59 1.01 1.24 1.97 1.95 2.9-3.51 3.81-7.22 7.42-11.01 10.95-3.85 3.57-7.77 7.07-11.6 10.67a201.18 201.18 0 0 0-4.92 4.76c-.12-.71-.41-1.4-.86-1.97-.58-.75-1.4-1.24-2.29-1.47 3.74-3.46 7.53-6.86 11.33-10.25Zm-16.44 23.43c0-.01-.01-.02-.02-.04.03.02.05.06.06.1 0 0-.01-.02-.03-.05Zm10.76-3.99c-.07.13-.17.26-.27.37-.27.27-.63.48-.99.63-2.44 1-4.92 1.96-7.44 2.73a9.373 9.373 0 0 0-3-3.32c.33-.71.68-1.41 1.04-2.11.7-1.36 1.48-2.66 2.14-4.04.36-.76 1.04-1.63 1.96-1.67.97-.05 1.84.9 2.09 1.77.28.99-.66 1.71-.94 2.61-.07.21-.1.43-.05.65.19.73 1.01.69 1.52.37.31-.19 1-.51 1.32-.67 1.59-.84 3.5 1.11 2.63 2.69Zm21.94-20.51c-4.89 4.44-9.73 8.94-14.53 13.5-1.81 1.72-3.62 3.46-5.42 5.19-.14-.71-.47-1.37-1-1.89-.53-.52-1.17-.85-1.85-.99 3.13-3.09 6.35-6.09 9.6-9.06 3.88-3.54 7.77-7.06 11.53-10.73 2.04-2 4.03-4.05 5.97-6.15.3.34.61.68.92 1 .4.41.81.8 1.23 1.18.4.36.81.73 1.27 1.01-2.59 2.3-5.17 4.61-7.73 6.94Zm10.79-9.65c-.48.41-.95.83-1.42 1.25-.27.09-.7-.18-1.01-.42-.45-.35-.87-.76-1.28-1.16a26.63 26.63 0 0 1-4.35-5.57c-.05-.08-.11-.15-.18-.22.42-.42.85-.84 1.29-1.25a24.41 24.41 0 0 0 6.94 7.37Z" class="cls-3"/><path d="M.14 274.35c-.16.46-.13.84-.14 1.31 0 .15.03.32.12.49-.19.34 1.88 3.4 2.14 3.85 1.52 2.75 2.95 5.7 4.56 8.52.55.96 1.12 1.91 1.72 2.82 1.11 1.7 2.34 3.3 3.75 4.73.63.64 1.32 1.21 2.04 1.72 1.12.79 2.36 1.43 3.65 1.91 3.2 1.19 6.79 1.44 10.11.74 6.22-1.31 11.04-6.24 12.95-12.22.2-.61.35-1.23.46-1.85.24-1.34.3-2.7.21-4.05-.16-2.37-.79-4.73-1.69-6.94-2.3-5.63-5.36-10.85-8.33-16.14-.01-.02-.02-.05-.04-.07a.945.945 0 0 0-.34-.37c-1.87-1.86-5.52-.49-7.65.12-6.92 1.97-13.36 5.45-18.91 10.02-1.79 1.48-3.82 3.12-4.61 5.39Zm30.74-11.38c.08-.08.17-.16.29-.15.09 0 .16.07.23.14.75.73 1.21 1.56 1.73 2.47.98 1.7 1.96 3.42 2.86 5.17 1.56 3.04 2.8 6.34 3.33 9.62.24 1.5.34 2.99.25 4.45-.23 3.83-1.71 7.48-5.09 10.51-3.46 3.11-7.9 4.16-12.35 3.47-.68-.1-1.35-.25-2.03-.43-1-.27-1.93-.62-2.8-1.04-3.2-1.54-5.57-4.03-7.55-7.18-.13-.2-.25-.41-.38-.62-.45-.75-.87-1.5-1.29-2.26-.69-1.25-1.34-2.51-1.98-3.78-.55-1.09-3.84-5.38-2.46-6.3.3-.2.67-.27 1.02-.35 4.79-.99 9.37-2.82 13.66-5.13 4.4-2.36 8.98-5.1 12.56-8.6Z" class="cls-7"/><path d="M11.47 283.31c.02.78.21 1.54.57 2.23.32.61.98.61 1.42.3.13-.09.25-.22.32-.36a.88.88 0 0 0-.02-.86c-.67-1.27-.35-2.95.81-3.91.09-.08.66-.39.77-.42.41-.14.72-.19 1.08-.19.67 0 1.2.13 1.74.47.1.07.21.14.32.22.42.32 1.09.09 1.34-.32.3-.49.1-1.02-.32-1.35 0 0-.02-.01-.03-.02-.98-.74-2.21-1.04-3.4-.94-1.03.09-2.04.47-2.85 1.13-1.19.97-1.78 2.51-1.74 4.02Zm13.93-6.26a3.154 3.154 0 0 1 .55-2.09c.2-.29.39-.5.71-.76.08-.07.22-.16.42-.27.06-.03.11-.06.18-.09.02-.01.05-.02.07-.03.03-.02.07-.03.11-.04 0 0 .02 0 .05-.02 1.43-.44 3.01.23 3.7 1.48.55 1 2.01.34 1.84-.62-.02-.1-.05-.2-.11-.31-.62-1.13-1.7-1.99-2.93-2.4-.94-.32-1.97-.37-2.93-.07-1.12.35-2.08 1.1-2.74 2.05-.61.9-.95 1.98-.87 3.08.04.53.38.99.95 1.01.49.02 1.05-.41 1.01-.94Zm6.08 1.08c-3.95 4.35-9.56 7.4-15.28 8.72-.52.12-.86.75-.59 1.18 1.27 2.09 2.79 4.07 4.88 5.45.64.42 1.34.78 2.09 1.06.83.31 1.72.51 2.62.58.51.04 1.02.03 1.54-.02 4.85-.5 8.13-5.01 8.24-9.4.01-.55-.02-1.1-.08-1.63-.11-.9-.32-1.78-.61-2.63-.29-.85-.65-1.66-1.08-2.45-.13-.24-.27-.48-.41-.72v-.01a.61.61 0 0 0-.12-.16c-.16-.16-.44-.25-.7-.22a.74.74 0 0 0-.48.24Z" class="cls-7"/></g></svg>