<svg xmlns="http://www.w3.org/2000/svg" id="a" viewBox="0 0 116 116.2"><defs><style>.cls-1{fill:#ffb200}</style></defs><path d="M97.03 15.3C83.72 2.93 67.46-1.8 49.6.61 34.72 2.62 22.19 9.99 12.68 21.52 2.27 34.14-1.63 48.96.61 66.63c2.04 24.87 25.72 50.16 59.23 49.56 17.76-.32 32.78-8.24 44.01-22.55 8.56-10.9 12.31-23.47 12.14-36.97-.21-16.37-7.08-30.32-18.96-41.37Zm-.29 42.8c-1.2 25.24-21.49 38.01-35.04 38.17-12.42 1.63-22.97-2.46-31.3-10.58-7.71-7.51-11.34-17.53-11.24-28.52.12-12.23 5.77-21.91 14.84-29.52 5.31-4.47 11.92-7.27 18.81-7.94 14.77-1.41 27.27 4.15 36.36 15.53 5.05 6.32 7.96 14.47 7.55 22.86h.02Z" class="cls-1"/><path d="M56.05 61.1c3.64-.27 6.72 1.02 10.04 2.33 3.61 1.43 7.15 3.02 10.62 4.77 2.72 1.37 2.36 4.67 1.23 7.01-1.52 3.15-3.87 4.02-7.12 2.67-4.14-1.71-8.73-4.57-13.37-4.02-5.08.61-9.27 4.03-13.87 5.96-2.59 1.09-4.25-.21-5.42-2.55-.77-1.54-1.62-4.34-.14-5.76 4.97-4.74 11.18-9.92 18.03-10.42Z" class="cls-1"/></svg>